<svg height="496pt" viewBox="0 0 496 496" width="496pt" xmlns="http://www.w3.org/2000/svg"><path d="m488 240h-24v-8c0-4.425781-3.574219-8-8-8h-32c-4.425781 0-8 3.574219-8 8v48h-39.160156l7.121094-71.199219c.167968-1.65625-.183594-3.320312-1.015626-4.769531l-32-56c-1.015624-1.785156-2.679687-3.101562-4.648437-3.695312l-74.296875-22.289063v-16.542969c14.320312-8.3125 24-23.785156 24-41.503906v-16c0-26.472656-21.527344-48-48-48s-48 21.527344-48 48v16c0 17.71875 9.679688 33.191406 24 41.503906v16.542969l-74.296875 22.289063c-1.96875.59375-3.632813 1.910156-4.648437 3.695312l-32 56c-.832032 1.449219-1.175782 3.113281-1.015626 4.769531l7.121094 71.199219h-39.160156v-48c0-4.425781-3.574219-8-8-8h-32c-4.425781 0-8 3.574219-8 8v8h-24c-4.425781 0-8 3.574219-8 8v112c0 4.425781 3.574219 8 8 8h24v8c0 4.425781 3.574219 8 8 8h32c4.425781 0 8-3.574219 8-8v-48h105.566406l-32.351562 51.761719c-.335938.535156-.605469 1.109375-.808594 1.710937l-24 72c-.261719.816406-.40625 1.671875-.40625 2.527344v40h16v-38.703125l5.0625-15.183594 34.9375 11.648438v42.238281h16v-46.464844l15.03125-37.582031 20.96875-27.953125h24l20.96875 27.953125 15.03125 37.582031v46.464844h16v-42.238281l34.9375-11.648438 5.0625 15.183594v38.703125h16v-40c0-.855469-.144531-1.710938-.414062-2.527344l-24-72c-.195313-.601562-.472657-1.167968-.808594-1.710937l-32.34375-51.761719h105.566406v48c0 4.425781 3.574219 8 8 8h32c4.425781 0 8-3.574219 8-8v-8h24c4.425781 0 8-3.574219 8-8v-112c0-4.425781-3.574219-8-8-8zm-472 112v-96h16v96zm48 16h-16v-128h16zm152-320c0-17.648438 14.351562-32 32-32s32 14.351562 32 32v16c0 17.648438-14.351562 32-32 32s-32-14.351562-32-32zm-87.792969 161.753906 29.152344-51.011718 76.9375-23.078126c3.382813-1.015624 5.703125-4.136718 5.703125-7.664062v-16.71875c2.609375.4375 5.273438.71875 8 .71875s5.390625-.28125 8-.71875v16.71875c0 3.527344 2.320312 6.648438 5.703125 7.664062l76.9375 23.078126 29.152344 51.011718-7.03125 70.246094h-24.761719v-72c0-2.128906-.839844-4.160156-2.34375-5.65625l-32-32-11.3125 11.3125 18.34375 18.34375-8 8h-44.6875v16h32v56h-80v-56h32v-16h-44.6875l-8-8 18.34375-18.34375-11.3125-11.3125-32 32c-1.503906 1.496094-2.34375 3.527344-2.34375 5.65625v72h-24.761719zm181.449219 11.902344 10.34375-10.34375v68.6875h-16v-56c2.128906 0 4.160156-.839844 5.65625-2.34375zm-133.65625-10.34375 10.34375 10.34375c1.496094 1.503906 3.527344 2.34375 5.65625 2.34375v56h-16zm152.710938 176.121094 13.167968 39.511718-33.253906 11.085938-13.199219-33c-.265625-.65625-.609375-1.261719-1.035156-1.832031l-24-32c-1.503906-2.015625-3.878906-3.199219-6.390625-3.199219h-32c-2.511719 0-4.886719 1.183594-6.398438 3.199219l-24 32c-.425781.5625-.769531 1.167969-1.035156 1.832031l-13.199218 33-33.253907-11.085938 13.167969-39.511718 37.152344-59.433594h87.132812zm-248.710938-75.433594v-16h336v16zm368 56h-16v-128h16zm32-16h-16v-96h16zm0 0"/></svg>