<?xml version="1.0" encoding="utf-8"?>
<!-- Generator: Adobe Illustrator 24.0.0, SVG Export Plug-In . SVG Version: 6.00 Build 0)  -->
<svg version="1.1" id="Capa_1" xmlns="http://www.w3.org/2000/svg" xmlns:xlink="http://www.w3.org/1999/xlink" x="0px" y="0px"
	 viewBox="0 0 1700 1426" style="enable-background:new 0 0 1700 1426;" xml:space="preserve">
<style type="text/css">
	.st0{display:none;}
	.st1{display:inline;}
	.st2{clip-path:url(#SVGID_2_);}
	.st3{enable-background:new    ;}
	.st4{fill:#1D1D1B;}
	.st5{fill:#191918;}
	.st6{fill:#191918;stroke:#000000;stroke-width:7;stroke-miterlimit:10;}
	.st7{stroke:#000000;stroke-width:7;stroke-miterlimit:10;}
</style>
<g id="background">
	<g class="st0">
		<g class="st1">
			<defs>
				<rect id="SVGID_1_" x="-21.2" y="-16" width="1738" height="1458"/>
			</defs>
			<use xlink:href="#SVGID_1_"  style="overflow:visible;fill:#1D1D1B;"/>
			<clipPath id="SVGID_2_">
				<use xlink:href="#SVGID_1_"  style="overflow:visible;"/>
			</clipPath>
			<g class="st2">
				
					<image style="overflow:visible;enable-background:new    ;" width="2005" height="1337" xlink:href="5A09EE641C288ED2.jpeg"  transform="matrix(1.1414 0 0 1.1414 -299.1595 -42.001)">
				</image>
			</g>
		</g>
	</g>
	<g class="st3">
		<path class="st4" d="M738.5,1051.8c2-7.5,4.2-15,6.7-22.7c2.4-7.7,5.5-16.9,9.1-27.6c3.6-10.7,6.1-18.1,7.4-22.2
			c0.4-0.7,0.7-1,0.8-1.2h8.2c1.9,0,4.8,0,8.5-0.1c3.7-0.1,6.6-0.1,8.5-0.1h8.2c0.5,0,0.9,0,1.2,0c0.3,0,0.7,0.1,1.2,0.1
			c0.5,0.1,0.8,0.2,1.1,0.3c0.3,0.1,0.5,0.3,0.7,0.6c0.2,0.3,0.3,0.6,0.3,0.9l22.5,71.3c0,0.7-0.2,1.1-0.7,1.3
			c-0.5,0.2-1.4,0.4-2.7,0.4H815c-1.3,0-3.2,0-5.8,0c-2.6,0-4.5,0-5.8,0c-0.4,0-1.2,0-2.4,0.1c-1.2,0-2.2,0.1-3,0
			c-0.8,0-1.7-0.1-2.7-0.1c-1-0.1-1.8-0.3-2.4-0.5c-0.6-0.3-1-0.6-1.1-1.1v-3.2c-0.3-1.6-0.9-3.1-1.7-4.5c-0.8-1.4-1.7-2.1-2.6-2.1
			h-16.8l-2.5,10.4c-0.4,0.8-2.2,1.2-5.5,1.2h-3.9c-1.4,0-3.5,0-6.2,0.1c-2.8,0.1-4.9,0.1-6.2,0.1h-1.4c-0.5,0-1.3,0-2.5,0
			c-1.1,0-2,0-2.6,0C739.6,1053.3,739.1,1052.7,738.5,1051.8z M772.4,1022.2l1.4,2.3h3.2c2.6,0,5-0.2,7.2-0.5
			c2.2-0.3,3.2-0.8,3.2-1.5l-6.3-28.1c-0.6,0-1.4,1.1-2.4,3.3c-1,2.2-1.8,4.7-2.4,7.5L772.4,1022.2z"/>
		<path class="st4" d="M826.9,1049.9l-1-32.5c0-2.2,0-4.8,0.1-7.6c0.1-2.8,0.1-5.4,0.2-7.7c0.1-2.3,0.2-4.9,0.3-7.8
			c0.1-2.9,0.1-5.5,0.1-7.9c0-0.7,0.2-1.1,0.7-1.2c0.4-0.2,1-0.2,1.7-0.2c0.7,0.1,1.4,0,2.3-0.1h35c2,0,4,0.3,6,0.8
			c2,0.5,3.9,1.3,5.8,2.4s3.6,2.5,5,4.1s2.6,3.6,3.5,6c0.9,2.4,1.3,5.1,1.3,8c0,3.8-0.8,7.3-2.4,10.2s-4.1,5.8-7.3,8.4
			c-4,2.1-8.8,3.3-14.5,3.6H862c-1.3,0.3-2.6,0.4-3.9,0.4h-3.9c-0.2,0-0.4,0-0.5,0.1c0,8.5,0.1,15,0.4,19.3c-0.2,0.7-0.5,1.1-1,1.3
			c-0.5,0.2-1.5,0.3-2.8,0.3H826.9z M851.3,1012.6v0.9c0,0,0.3,0.1,0.7,0.3c0.4,0.2,0.6,0.3,0.6,0.4v0.1c-0.1,0-0.1-0.1-0.1-0.2
			c0.1,0.1,0.3,0.1,0.6,0.1c2.9,0,5.3-0.7,7.3-2c2-1.3,3-3.3,3-6.1c0-1.2-0.2-2.3-0.6-3.2s-0.9-1.6-1.5-2c-0.6-0.5-1.4-0.8-2.4-1.1
			s-2-0.4-2.8-0.5c-0.8-0.1-1.9-0.1-3.2-0.1c0,0-0.2,0.1-0.4,0.3s-0.4,0.3-0.5,0.4v5.1C851.5,1008.3,851.3,1010.8,851.3,1012.6z"/>
		<path class="st4" d="M893.6,1049.9l-1-32.5c0-2.2,0-4.8,0.1-7.6s0.1-5.4,0.2-7.7c0.1-2.3,0.2-4.9,0.3-7.8c0.1-2.9,0.1-5.5,0.1-7.9
			c0-0.7,0.2-1.1,0.7-1.2c0.4-0.2,1-0.2,1.7-0.2c0.7,0.1,1.4,0,2.3-0.1h35c2,0,4,0.3,6,0.8c2,0.5,3.9,1.3,5.8,2.4s3.6,2.5,5,4.1
			s2.6,3.6,3.5,6c0.9,2.4,1.3,5.1,1.3,8c0,3.8-0.8,7.3-2.4,10.2s-4.1,5.8-7.3,8.4c-4,2.1-8.8,3.3-14.5,3.6h-1.6
			c-1.3,0.3-2.6,0.4-3.9,0.4h-3.9c-0.2,0-0.4,0-0.5,0.1c0,8.5,0.1,15,0.4,19.3c-0.2,0.7-0.5,1.1-1,1.3c-0.5,0.2-1.5,0.3-2.8,0.3
			H893.6z M918,1012.6v0.9c0,0,0.3,0.1,0.7,0.3c0.4,0.2,0.6,0.3,0.6,0.4v0.1c-0.1,0-0.1-0.1-0.1-0.2c0.1,0.1,0.3,0.1,0.6,0.1
			c2.9,0,5.3-0.7,7.3-2c2-1.3,3-3.3,3-6.1c0-1.2-0.2-2.3-0.6-3.2s-0.9-1.6-1.5-2c-0.6-0.5-1.4-0.8-2.4-1.1s-2-0.4-2.8-0.5
			c-0.8-0.1-1.9-0.1-3.2-0.1c0,0-0.2,0.1-0.4,0.3s-0.4,0.3-0.5,0.4v5.1C918.2,1008.3,918,1010.8,918,1012.6z"/>
	</g>
</g>
<g id="Layer_3">
	<rect x="586.4" y="996.4" class="st5" width="138.3" height="30.6"/>
	<g>
		<path class="st6" d="M884,440.9c-31.1,0-56.3,28.1-56.3,62.9c0,34.7,25.2,62.9,56.3,62.9c31.1,0,56.3-28.1,56.3-62.9
			C940.3,469,915.1,440.9,884,440.9z"/>
		<path class="st7" d="M1065.2,487.3l-63-120.3c0,0-22.8-47.2-80.3-47.2c-32.9,0-53.7,0-65.6,0c0,0-3.8,0-12.6,0
			c-11.8,0-32.6,0-65.6,0c-57.5,0-80.3,47.2-80.3,47.2l-63,120.3c-33.7,56.8-6.5,105-6.5,105s40.7,75.8,64.1,121.5
			c26.7,52.1,85.8,53.1,85.8,53.1h65.6h12.6h65.6c0,0,59.4-1.9,85.8-53.1c23.5-45.6,64.1-121.5,64.1-121.5
			S1098.8,544.1,1065.2,487.3z M696.5,709.2c-4.4-8.6-9.5-18.3-14.7-28.4c0.5-0.4,1.1-0.9,1.7-1.3c20.1-16.4,8.9-11.6,16.3-16
			c7.5-4.5,14.3,8.1,20.7,27.4c7.1,21.2,27.8,31.4,39.7,53.5c2.6,4.8,5,9.8,7.3,15.1C749.2,756.1,715,745.2,696.5,709.2z
			 M1065.8,591c0,0-39.5,73.9-62.4,118.3c-25.6,49.8-83.5,51.7-83.5,51.7h-21.5c2.2-4.1,4.7-8.6,7.4-13.4
			c16.9-30.1,28.4-96.7,31.5-108.3c3.2-11.6,11.1-52.1,13.8-62.7c0.4-1.4,0.9-3.4,1.6-5.7c5.8,1.8,11.9,2.8,18.3,2.8
			c33.7,0,61.1-27.3,61.1-61.1c0-33.7-27.3-61.1-61.1-61.1c-12.3,0-23.7,3.6-33.3,9.9c10.4,11.3,16.7,26.3,16.7,42.9
			c0,29.6-20.2,54.4-47.6,61.4c-0.4,5.1-5.8,28-17.9,53.4c-12.7,26.4-40.7,75.6-40.7,75.6s-2.1-24.3-18-55.5
			c13.2-65-9.5-100.5-37-115.8c-27.5-15.3-52.4-41.8-52.4-41.8s6.3-1.6,13.2-4.8c6.9-3.2,6.3-12.2,9.5-18.5
			c11.6-3.2,6.4-11.6,6.4-11.6l7.9-1.1l5.8-7.9c0,0,5.8-1.1,9,1.6c3.2,2.6,8.5-1.1,10.6-10c2.1-9,1.6-33.3,2.1-38.6
			c0.5-5.3,15.3-4.2,21.2-6.9c5.8-2.6,5.8-13.8,9-27c4.2-12.7,6.3-26.4,5.8-29.6c-0.1-0.5,0-1,0.2-1.4c0.8,0,1.6,0,2.3,0
			c8.6,0,12.3,0,12.3,0c11.5,0,31.8,0,63.8,0c56,0,78.2,45.9,78.2,45.9l61.3,117.1C1092.3,544.1,1065.8,591,1065.8,591z"/>
	</g>
	<g class="st3">
		<path class="st5" d="M589.3,961.1l-2.1-82.6c0-5.7,0.1-12.2,0.2-19.3c0.1-7.2,0.3-13.7,0.5-19.5c0.2-5.8,0.4-12.4,0.5-19.7
			c0.2-7.4,0.2-14.1,0.2-20.1c0-1.7,0.4-2.7,1.3-3.2c0.9-0.5,2-0.6,3.3-0.4c1.3,0.2,2.8,0,4.5-0.4h69.9c4,0,7.9,0.6,11.9,1.9
			c4,1.3,7.9,3.3,11.7,6.2s7.2,6.3,10.1,10.4c2.9,4.1,5.2,9.2,7,15.3c1.8,6.1,2.7,12.9,2.7,20.2c0,9.8-1.6,18.4-4.9,26
			c-3.3,7.6-8.1,14.7-14.6,21.4c-8,5.3-17.6,8.3-28.9,9.2h-3.1c-2.6,0.7-5.2,1-7.8,1h-7.8c-0.4,0-0.7,0.1-1,0.2
			c0,21.7,0.3,38,0.8,49.1c-0.3,1.7-1,2.8-2.1,3.3c-1.1,0.6-2.9,0.9-5.5,0.9H589.3z M638.1,866.4v2.2c0.1,0.1,0.5,0.4,1.3,0.8
			c0.8,0.5,1.2,0.8,1.2,0.9v0.2c-0.1,0-0.2-0.2-0.2-0.5c0.1,0.2,0.5,0.2,1.2,0.2c5.8,0,10.7-1.7,14.7-5c4-3.3,6-8.4,6-15.4
			c0-3.1-0.4-5.8-1.3-8.1c-0.8-2.2-1.9-3.9-3.1-5.1c-1.2-1.2-2.8-2.1-4.9-2.7c-2.1-0.6-3.9-1-5.6-1.2c-1.7-0.2-3.8-0.2-6.4-0.2
			c-0.1,0.1-0.3,0.4-0.8,0.9c-0.5,0.5-0.8,0.9-1,1.1v12.9C638.5,855.5,638.1,861.8,638.1,866.4z"/>
		<path class="st5" d="M720.7,824.5c-0.3-1.7-0.4-6.4-0.4-14.1c0-8.9,0.6-14.2,2-15.9h53.1v104.2c0,10.7,2.5,16.1,7.4,16.1
			c2.1,0,3.8-1.2,5.2-3.5c1.4-2.4,2-5.1,2-8.4v-18.3c0.4-36.2,0.6-54.5,0.6-54.8c0-14.4-0.1-24.8-0.4-31.2c0-2.3,0.9-4,2.7-5h54.3
			v19.3c-0.8,31.3-1.4,51.5-1.6,60.5v7.7c0,1,0,2.3-0.1,4c-0.1,1.7-0.1,2.8-0.1,3.5c0,2.8,0.1,4.8,0.2,6v9.7
			c0,11.5-0.9,19.8-2.7,24.8v0.5c-2.1,6.2-5.1,11.6-9,16.1c-3.9,4.5-8.4,8-13.4,10.5c-5,2.5-10.2,4.3-15.4,5.5s-10.8,1.7-16.7,1.7
			c-1.8,0-3.2-0.2-4.1-0.7H782c0,0.8-1,1.2-2.9,1.2v0.2c-1.4,0.1-5.6-0.3-12.5-1.2h-4.5c-4.1-0.6-8.1-1.7-11.9-3.5
			c-3.8-1.7-7.5-4.2-11.1-7.4c-3.6-3.2-6.7-7-9.4-11.3c-2.7-4.4-4.9-9.7-6.6-16c-1.7-6.3-2.6-13.1-2.8-20.6c0.1-4.3,0.1-10.2,0-17.9
			c0-7.6,0-14.5,0-20.8c0.1-6.2,0.2-12.3,0.5-18.2v-3.5c0-0.4,0-1.1,0.1-2c0.1-0.9,0.1-1.6,0.1-2c0-1.2-0.1-3.1-0.2-5.6
			c-0.1-2.5-0.2-4.3-0.2-5.6v-4.2V824.5z"/>
		<path class="st5" d="M938.5,843.6c-1.8,0-3.2-0.3-4.3-1c-1.1-0.7-2-1.5-2.6-2.5c-0.7-1-1.4-2-2.2-3c-0.8-1-2.1-1.8-3.9-2.5
			c-1.8-0.7-4-1-6.7-1c-0.8,0-1.9,0.1-3.1,0.3c-1.2,0.2-2.5,0.8-4,1.7c-1.4,0.9-2.1,2.1-2.1,3.5c0,1.6,0.6,2.9,1.8,4
			c1.2,1.1,2.6,1.9,4.1,2.4c1.5,0.5,3.3,1,5.2,1.6c1.9,0.6,3.3,1.2,4.1,1.7l14.4,4.5c4.2,1.5,8,3.1,11.4,4.7c3.4,1.7,7,3.9,10.8,6.8
			c3.8,2.9,7,6,9.5,9.5s4.7,7.8,6.3,13.1c1.7,5.3,2.5,11,2.5,17.3c0,7.6-0.8,14.4-2.3,20.3v-0.2c-1.4,5.3-3.3,10-5.8,14.2
			c-2.5,4.2-5.4,7.6-8.8,10.4c-3.4,2.8-6.8,5.1-10.3,6.9c-3.5,1.9-7.4,3.3-12,4.5c-4.5,1.1-8.6,1.9-12.1,2.5
			c-3.5,0.5-7.6,1-12.3,1.4c-20.5-1.3-34.2-5.5-41.2-12.4v-1.5c-5.9-5.6-10.3-11.7-13.1-18.3c-2.8-6.6-4.5-14.1-5-22.3
			c0-2,0.7-3,2.1-3c0.4,0,1,0,1.8,0.1c0.8,0.1,1.4,0.1,1.8,0.1h10c0.9-0.2,2.2-0.2,3.9-0.2h2.5c0.5,0,1,0.1,1.4,0.2
			c3.8-0.2,10.2-0.2,19.3-0.2h4.5c1.3,0,2.3,0.5,3,1.5c0.7,1,1.3,2.2,1.7,3.7c0.4,1.4,0.9,2.9,1.5,4.3c0.6,1.4,1.5,2.7,3,3.7
			c1.4,1,3.3,1.5,5.7,1.5c2.5,0,4.8-0.8,6.9-2.5c2.1-1.7,3.1-4.2,3.1-7.4c0-1.5-0.6-2.9-1.7-4.2c-1.1-1.3-2.8-2.5-5-3.6
			c-2.2-1.1-4.2-1.9-5.9-2.6c-1.7-0.7-4.1-1.4-7-2.4c-2.9-0.9-4.8-1.5-5.7-1.9h-5.9c-14.1-5.3-24.3-12-30.5-20.1
			c-6.2-8.1-9.3-18.5-9.3-30.9c0-8.3,1.2-15.7,3.7-22.3c2.4-6.6,5.7-12,9.7-16.2c4-4.2,8.7-7.7,14.1-10.6c5.4-2.9,10.9-4.9,16.5-6.1
			c5.6-1.2,11.4-1.8,17.4-1.8c10.6,0,20.5,2.3,29.5,6.8c9.1,4.5,16,10.4,20.7,17.5c1.7,2.2,3.1,4.9,4.1,8.2c1,3.3,1.7,5.9,2,7.9
			c0.3,1.9,0.7,5.2,1.1,9.7l-2.7,5h-16.6c-1.8,0-4.9-0.1-9.1-0.2C944.1,843.7,940.8,843.6,938.5,843.6z"/>
		<path class="st5" d="M1117.2,800.7v152.5c0,1.7,0,3.1-0.1,4.2c-0.1,1-0.4,2-0.8,2.9c-0.5,0.9-1.1,1.4-2,1.4h-49.8v-2.7
			c-0.1-0.2-0.6-0.5-1.5-1.1c-0.9-0.6-1.4-1.1-1.6-1.6v-50.1c0-1.8-0.1-2.9-0.3-3.1c-0.2-0.2-1.2-0.4-2.8-0.4h-6.6
			c-1.6,0-3.4,0.2-5.5,0.5v53.6c-0.3,1.5-0.8,2.4-1.5,2.9c-0.7,0.4-1.9,0.6-3.4,0.6h-4.5c-3.1,0-7.9,0.1-14.4,0.2
			c-6.5,0.2-11.5,0.2-14.9,0.2h-12.9c-2.8,0-4.2-2-4.2-6l0.6-156.2c0-0.4,0.1-0.8,0.3-1.1c0.2-0.3,0.6-0.7,1.2-1.2
			c0.6-0.5,0.9-0.8,1-0.9h52.5v53.3h17V794h49.8c1.6,0,2.7,0.5,3.4,1.4C1116.8,796.3,1117.2,798.1,1117.2,800.7z"/>
	</g>
	<rect x="978.1" y="996.4" class="st5" width="138.3" height="30.6"/>
</g>
</svg>
