<?xml version="1.0" encoding="utf-8"?>
<!-- Generator: Adobe Illustrator 24.0.1, SVG Export Plug-In . SVG Version: 6.00 Build 0)  -->
<svg version="1.1" id="Capa_1" xmlns="http://www.w3.org/2000/svg" xmlns:xlink="http://www.w3.org/1999/xlink" x="0px" y="0px"
	 viewBox="0 0 900 900" style="enable-background:new 0 0 900 900;" xml:space="preserve">
<style type="text/css">
	.st0{display:none;}
	.st1{display:inline;}
	.st2{clip-path:url(#SVGID_2_);}
	.st3{enable-background:new    ;}
	.st4{fill:#FFFFFF;}
	.st5{fill:none;stroke:#FFFFFF;stroke-width:13;stroke-miterlimit:10;}
	.st6{fill:none;stroke:#FFFFFF;stroke-width:2.0037;stroke-miterlimit:10;}
</style>
<g>
	<g id="background">
		<g class="st0">
			<g class="st1">
				<g>
					<defs>
						<rect id="SVGID_1_" x="-419" y="-252.5" width="1738" height="1458"/>
					</defs>
					<clipPath id="SVGID_2_">
						<use xlink:href="#SVGID_1_"  style="overflow:visible;"/>
					</clipPath>
					<g class="st2">
					</g>
				</g>
			</g>
		</g>
		<g class="st3">
			<path class="st4" d="M340.7,815.3c2-7.5,4.2-15,6.7-22.7c2.4-7.7,5.5-16.9,9.1-27.6c3.6-10.7,6.1-18.1,7.4-22.2
				c0.4-0.7,0.7-1,0.8-1.2h8.2c1.9,0,4.8,0,8.5-0.1s6.6-0.1,8.5-0.1h8.2c0.5,0,0.9,0,1.2,0s0.7,0.1,1.2,0.1c0.5,0.1,0.8,0.2,1.1,0.3
				s0.5,0.3,0.7,0.6s0.3,0.6,0.3,0.9l22.5,71.3c0,0.7-0.2,1.1-0.7,1.3c-0.5,0.2-1.4,0.4-2.7,0.4h-4.5c-1.3,0-3.2,0-5.8,0
				s-4.5,0-5.8,0c-0.4,0-1.2,0-2.4,0.1c-1.2,0-2.2,0.1-3,0c-0.8,0-1.7-0.1-2.7-0.1c-1-0.1-1.8-0.3-2.4-0.5c-0.6-0.3-1-0.6-1.1-1.1
				v-3.2c-0.3-1.6-0.9-3.1-1.7-4.5s-1.7-2.1-2.6-2.1h-16.8l-2.5,10.4c-0.4,0.8-2.2,1.2-5.5,1.2H361c-1.4,0-3.5,0-6.2,0.1
				c-2.8,0.1-4.9,0.1-6.2,0.1h-1.4c-0.5,0-1.3,0-2.5,0c-1.1,0-2,0-2.6,0C341.8,816.8,341.3,816.2,340.7,815.3z M374.6,785.7l1.4,2.3
				h3.2c2.6,0,5-0.2,7.2-0.5c2.2-0.3,3.2-0.8,3.2-1.5l-6.3-28.1c-0.6,0-1.4,1.1-2.4,3.3s-1.8,4.7-2.4,7.5L374.6,785.7z"/>
			<path class="st4" d="M429.1,813.4l-1-32.5c0-2.2,0-4.8,0.1-7.6s0.1-5.4,0.2-7.7c0.1-2.3,0.2-4.9,0.3-7.8c0.1-2.9,0.1-5.5,0.1-7.9
				c0-0.7,0.2-1.1,0.7-1.2c0.4-0.2,1-0.2,1.7-0.2c0.7,0.1,1.4,0,2.3-0.1h35c2,0,4,0.3,6,0.8s3.9,1.3,5.8,2.4s3.6,2.5,5,4.1
				s2.6,3.6,3.5,6s1.3,5.1,1.3,8c0,3.8-0.8,7.3-2.4,10.2s-4.1,5.8-7.3,8.4c-4,2.1-8.8,3.3-14.5,3.6h-1.7c-1.3,0.3-2.6,0.4-3.9,0.4
				h-3.9c-0.2,0-0.4,0-0.5,0.1c0,8.5,0.1,15,0.4,19.3c-0.2,0.7-0.5,1.1-1,1.3c-0.5,0.2-1.5,0.3-2.8,0.3L429.1,813.4L429.1,813.4z
				 M453.5,776.1v0.9c0,0,0.3,0.1,0.7,0.3s0.6,0.3,0.6,0.4v0.1c-0.1,0-0.1-0.1-0.1-0.2c0.1,0.1,0.3,0.1,0.6,0.1c2.9,0,5.3-0.7,7.3-2
				s3-3.3,3-6.1c0-1.2-0.2-2.3-0.6-3.2s-0.9-1.6-1.5-2c-0.6-0.5-1.4-0.8-2.4-1.1s-2-0.4-2.8-0.5s-1.9-0.1-3.2-0.1
				c0,0-0.2,0.1-0.4,0.3s-0.4,0.3-0.5,0.4v5.1C453.7,771.8,453.5,774.3,453.5,776.1z"/>
			<path class="st4" d="M495.8,813.4l-1-32.5c0-2.2,0-4.8,0.1-7.6s0.1-5.4,0.2-7.7c0.1-2.3,0.2-4.9,0.3-7.8c0.1-2.9,0.1-5.5,0.1-7.9
				c0-0.7,0.2-1.1,0.7-1.2c0.4-0.2,1-0.2,1.7-0.2c0.7,0.1,1.4,0,2.3-0.1h35c2,0,4,0.3,6,0.8s3.9,1.3,5.8,2.4s3.6,2.5,5,4.1
				s2.6,3.6,3.5,6s1.3,5.1,1.3,8c0,3.8-0.8,7.3-2.4,10.2s-4.1,5.8-7.3,8.4c-4,2.1-8.8,3.3-14.5,3.6H531c-1.3,0.3-2.6,0.4-3.9,0.4
				h-3.9c-0.2,0-0.4,0-0.5,0.1c0,8.5,0.1,15,0.4,19.3c-0.2,0.7-0.5,1.1-1,1.3c-0.5,0.2-1.5,0.3-2.8,0.3L495.8,813.4L495.8,813.4z
				 M520.2,776.1v0.9c0,0,0.3,0.1,0.7,0.3s0.6,0.3,0.6,0.4v0.1c-0.1,0-0.1-0.1-0.1-0.2c0.1,0.1,0.3,0.1,0.6,0.1c2.9,0,5.3-0.7,7.3-2
				s3-3.3,3-6.1c0-1.2-0.2-2.3-0.6-3.2s-0.9-1.6-1.5-2c-0.6-0.5-1.4-0.8-2.4-1.1s-2-0.4-2.8-0.5s-1.9-0.1-3.2-0.1
				c0,0-0.2,0.1-0.4,0.3s-0.4,0.3-0.5,0.4v5.1C520.4,771.8,520.2,774.3,520.2,776.1z"/>
		</g>
	</g>
	<g id="Layer_3">
		<rect x="188.6" y="759.9" class="st4" width="138.3" height="30.6"/>
		<path class="st5" d="M667.4,250.8l-63-120.3c0,0-22.8-47.2-80.3-47.2c-32.9,0-53.7,0-65.6,0c0,0-3.8,0-12.6,0
			c-11.8,0-32.6,0-65.6,0c-57.5,0-80.3,47.2-80.3,47.2l-63,120.3c-33.7,56.8-6.5,105-6.5,105s40.7,75.8,64.1,121.5
			c26.7,52.1,85.8,53.1,85.8,53.1H446h12.6h65.6c0,0,59.4-1.9,85.8-53.1c23.5-45.6,64.1-121.5,64.1-121.5S701,307.6,667.4,250.8z"/>
		<path class="st6" d="M661.8,252.2L600.4,135c0,0-22.2-46-78.3-46c-32.1,0-52.4,0-63.9,0c0,0-3.7,0-12.3,0c-11.5,0-31.8,0-63.9,0
			c-56.1,0-78.3,46-78.3,46l-61.4,117.2c-32.6,55.4-6.1,102.3-6.1,102.3s39.6,73.9,62.4,118.4c26,50.7,83.6,51.7,83.6,51.7h63.9
			h12.3h63.8c0,0,57.9-1.9,83.6-51.7c22.9-44.5,62.4-118.4,62.4-118.4S694.7,307.6,661.8,252.2z"/>
		<g>
			<path class="st4" d="M362.5,507.9c-12-22.1-32.7-32.3-39.7-53.5c-6.4-19.3-13.3-31.9-20.7-27.4c-7.5,4.5,3.8-0.4-16.3,16
				c-0.6,0.5-1.1,0.9-1.7,1.3c5.3,10.1,10.3,19.8,14.7,28.4c18.4,36,52.7,46.9,71.1,50.2C367.5,517.7,365.1,512.7,362.5,507.9z"/>
			<path class="st4" d="M486.3,226.4c-19.5,0-35.6,15.8-37.4,36c1.7-18.5,15.7-33,32.7-33c18.1,0,32.8,16.5,32.8,36.8
				S499.7,303,481.6,303c-17,0-31-14.4-32.7-33c1.8,20.2,17.9,36,37.4,36c20.8,0,37.6-17.8,37.6-39.8
				C523.9,244.2,507.1,226.4,486.3,226.4z"/>
			<path class="st4" d="M661.7,252.3l-61.3-117.1c0,0-22.2-45.9-78.2-45.9c-32.1,0-52.3,0-63.8,0c0,0-3.7,0-12.3,0
				c-0.7,0-1.5,0-2.3,0c-0.2,0.4-0.3,0.9-0.2,1.4c0.5,3.2-1.6,16.9-5.8,29.6c-3.2,13.2-3.2,24.3-9,27c-5.8,2.6-20.6,1.6-21.2,6.9
				c-0.5,5.3,0,29.6-2.1,38.6s-7.4,12.7-10.6,10c-3.2-2.6-9-1.6-9-1.6l-5.8,7.9l-7.9,1.1c0,0,5.3,8.5-6.4,11.6
				c-3.2,6.4-2.6,15.3-9.5,18.5s-13.2,4.8-13.2,4.8s24.9,26.4,52.4,41.8c27.5,15.3,50.2,50.8,37,115.8c15.9,31.2,18,55.5,18,55.5
				s28-49.2,40.7-75.6c12.2-25.3,17.5-48.2,17.9-53.4c27.4-7,47.6-31.9,47.6-61.4c0-16.5-6.3-31.6-16.7-42.9
				c9.6-6.2,21-9.9,33.3-9.9c33.7,0,61.1,27.3,61.1,61.1c0,33.7-27.3,61.1-61.1,61.1c-6.4,0-12.6-1-18.3-2.8
				c-0.7,2.3-1.3,4.2-1.6,5.7c-2.6,10.6-10.6,51.1-13.8,62.7c-3.2,11.6-14.6,78.2-31.5,108.3c-2.7,4.8-5.1,9.2-7.4,13.4h21.5
				c0,0,57.9-1.9,83.5-51.7c22.9-44.4,62.4-118.3,62.4-118.3S694.5,307.6,661.7,252.3z M542.5,267.2c0,34.7-25.2,62.9-56.3,62.9
				s-56.3-28.2-56.3-62.9c0-34.7,25.2-62.9,56.3-62.9C517.3,204.4,542.5,232.5,542.5,267.2z"/>
		</g>
		<g class="st3">
			<path class="st4" d="M191.5,724.6l-2.1-82.6c0-5.7,0.1-12.2,0.2-19.3c0.1-7.2,0.3-13.7,0.5-19.5s0.4-12.4,0.5-19.7
				c0.2-7.4,0.2-14.1,0.2-20.1c0-1.7,0.4-2.7,1.3-3.2c0.9-0.5,2-0.6,3.3-0.4c1.3,0.2,2.8,0,4.5-0.4h69.9c4,0,7.9,0.6,11.9,1.9
				c4,1.3,7.9,3.3,11.7,6.2s7.2,6.3,10.1,10.4c2.9,4.1,5.2,9.2,7,15.3s2.7,12.9,2.7,20.2c0,9.8-1.6,18.4-4.9,26
				c-3.3,7.6-8.1,14.7-14.6,21.4c-8,5.3-17.6,8.3-28.9,9.2h-3.1c-2.6,0.7-5.2,1-7.8,1h-7.8c-0.4,0-0.7,0.1-1,0.2
				c0,21.7,0.3,38,0.8,49.1c-0.3,1.7-1,2.8-2.1,3.3c-1.1,0.6-2.9,0.9-5.5,0.9L191.5,724.6L191.5,724.6z M240.3,629.9v2.2
				c0.1,0.1,0.5,0.4,1.3,0.8c0.8,0.5,1.2,0.8,1.2,0.9v0.2c-0.1,0-0.2-0.2-0.2-0.5c0.1,0.2,0.5,0.2,1.2,0.2c5.8,0,10.7-1.7,14.7-5
				s6-8.4,6-15.4c0-3.1-0.4-5.8-1.3-8.1c-0.8-2.2-1.9-3.9-3.1-5.1c-1.2-1.2-2.8-2.1-4.9-2.7c-2.1-0.6-3.9-1-5.6-1.2
				c-1.7-0.2-3.8-0.2-6.4-0.2c-0.1,0.1-0.3,0.4-0.8,0.9s-0.8,0.9-1,1.1v12.9C240.7,619,240.3,625.3,240.3,629.9z"/>
			<path class="st4" d="M322.9,588c-0.3-1.7-0.4-6.4-0.4-14.1c0-8.9,0.6-14.2,2-15.9h53.1v104.2c0,10.7,2.5,16.1,7.4,16.1
				c2.1,0,3.8-1.2,5.2-3.5c1.4-2.4,2-5.1,2-8.4v-18.3c0.4-36.2,0.6-54.5,0.6-54.8c0-14.4-0.1-24.8-0.4-31.2c0-2.3,0.9-4,2.7-5h54.3
				v19.3c-0.8,31.3-1.4,51.5-1.6,60.5v7.7c0,1,0,2.3-0.1,4s-0.1,2.8-0.1,3.5c0,2.8,0.1,4.8,0.2,6v9.7c0,11.5-0.9,19.8-2.7,24.8v0.5
				c-2.1,6.2-5.1,11.6-9,16.1s-8.4,8-13.4,10.5s-10.2,4.3-15.4,5.5s-10.8,1.7-16.7,1.7c-1.8,0-3.2-0.2-4.1-0.7h-2.3
				c0,0.8-1,1.2-2.9,1.2v0.2c-1.4,0.1-5.6-0.3-12.5-1.2h-4.5c-4.1-0.6-8.1-1.7-11.9-3.5c-3.8-1.7-7.5-4.2-11.1-7.4s-6.7-7-9.4-11.3
				c-2.7-4.4-4.9-9.7-6.6-16c-1.7-6.3-2.6-13.1-2.8-20.6c0.1-4.3,0.1-10.2,0-17.9c0-7.6,0-14.5,0-20.8c0.1-6.2,0.2-12.3,0.5-18.2
				v-3.5c0-0.4,0-1.1,0.1-2s0.1-1.6,0.1-2c0-1.2-0.1-3.1-0.2-5.6c-0.1-2.5-0.2-4.3-0.2-5.6v-4.2v0.2H322.9z"/>
			<path class="st4" d="M540.7,607.1c-1.8,0-3.2-0.3-4.3-1s-2-1.5-2.6-2.5c-0.7-1-1.4-2-2.2-3s-2.1-1.8-3.9-2.5c-1.8-0.7-4-1-6.7-1
				c-0.8,0-1.9,0.1-3.1,0.3c-1.2,0.2-2.5,0.8-4,1.7c-1.4,0.9-2.1,2.1-2.1,3.5c0,1.6,0.6,2.9,1.8,4s2.6,1.9,4.1,2.4s3.3,1,5.2,1.6
				s3.3,1.2,4.1,1.7l14.4,4.5c4.2,1.5,8,3.1,11.4,4.7c3.4,1.7,7,3.9,10.8,6.8c3.8,2.9,7,6,9.5,9.5s4.7,7.8,6.3,13.1
				c1.7,5.3,2.5,11,2.5,17.3c0,7.6-0.8,14.4-2.3,20.3v-0.2c-1.4,5.3-3.3,10-5.8,14.2s-5.4,7.6-8.8,10.4c-3.4,2.8-6.8,5.1-10.3,6.9
				c-3.5,1.9-7.4,3.3-12,4.5c-4.5,1.1-8.6,1.9-12.1,2.5c-3.5,0.5-7.6,1-12.3,1.4c-20.5-1.3-34.2-5.5-41.2-12.4v-1.5
				c-5.9-5.6-10.3-11.7-13.1-18.3s-4.5-14.1-5-22.3c0-2,0.7-3,2.1-3c0.4,0,1,0,1.8,0.1s1.4,0.1,1.8,0.1h10c0.9-0.2,2.2-0.2,3.9-0.2
				h2.5c0.5,0,1,0.1,1.4,0.2c3.8-0.2,10.2-0.2,19.3-0.2h4.5c1.3,0,2.3,0.5,3,1.5s1.3,2.2,1.7,3.7c0.4,1.4,0.9,2.9,1.5,4.3
				c0.6,1.4,1.5,2.7,3,3.7c1.4,1,3.3,1.5,5.7,1.5c2.5,0,4.8-0.8,6.9-2.5c2.1-1.7,3.1-4.2,3.1-7.4c0-1.5-0.6-2.9-1.7-4.2
				c-1.1-1.3-2.8-2.5-5-3.6s-4.2-1.9-5.9-2.6c-1.7-0.7-4.1-1.4-7-2.4c-2.9-0.9-4.8-1.5-5.7-1.9H500c-14.1-5.3-24.3-12-30.5-20.1
				s-9.3-18.5-9.3-30.9c0-8.3,1.2-15.7,3.7-22.3c2.4-6.6,5.7-12,9.7-16.2s8.7-7.7,14.1-10.6c5.4-2.9,10.9-4.9,16.5-6.1
				c5.6-1.2,11.4-1.8,17.4-1.8c10.6,0,20.5,2.3,29.5,6.8c9.1,4.5,16,10.4,20.7,17.5c1.7,2.2,3.1,4.9,4.1,8.2s1.7,5.9,2,7.9
				c0.3,1.9,0.7,5.2,1.1,9.7l-2.7,5h-16.6c-1.8,0-4.9-0.1-9.1-0.2C546.3,607.2,543,607.1,540.7,607.1z"/>
			<path class="st4" d="M719.4,564.2v152.5c0,1.7,0,3.1-0.1,4.2c-0.1,1-0.4,2-0.8,2.9c-0.5,0.9-1.1,1.4-2,1.4h-49.8v-2.7
				c-0.1-0.2-0.6-0.5-1.5-1.1s-1.4-1.1-1.6-1.6v-50.1c0-1.8-0.1-2.9-0.3-3.1c-0.2-0.2-1.2-0.4-2.8-0.4h-6.6c-1.6,0-3.4,0.2-5.5,0.5
				v53.6c-0.3,1.5-0.8,2.4-1.5,2.9c-0.7,0.4-1.9,0.6-3.4,0.6H639c-3.1,0-7.9,0.1-14.4,0.2c-6.5,0.2-11.5,0.2-14.9,0.2h-12.9
				c-2.8,0-4.2-2-4.2-6l0.6-156.2c0-0.4,0.1-0.8,0.3-1.1s0.6-0.7,1.2-1.2c0.6-0.5,0.9-0.8,1-0.9h52.5v53.3h17v-54.6H715
				c1.6,0,2.7,0.5,3.4,1.4C719,559.8,719.4,561.6,719.4,564.2z"/>
		</g>
		<rect x="580.3" y="759.9" class="st4" width="138.3" height="30.6"/>
	</g>
</g>
</svg>
